<svg width="200" height="43" viewBox="0 0 200 43" fill="none" xmlns="http://www.w3.org/2000/svg">
<path d="M15.2601 19.1402C17.3606 19.1402 19.338 20.0641 20.6845 21.6744L26.9912 16.4504C24.0802 12.9694 19.8048 10.9738 15.2601 10.9738C6.84526 10.9738 0 17.7851 0 26.1583C0 34.5315 6.84526 41.3428 15.2601 41.3428C19.751 41.3428 23.9956 39.3854 26.904 35.9708L20.6435 30.6907C19.297 32.2704 17.335 33.1763 15.2601 33.1763C11.372 33.1763 8.20713 30.0272 8.20713 26.1583C8.20713 22.2894 11.372 19.1402 15.2601 19.1402Z" fill="#010F1B"/>
<path d="M113.874 13.1276C111.709 11.9205 109.216 11.2289 106.564 11.2289C98.2906 11.2289 91.5608 17.9254 91.5608 26.1582C91.5608 34.391 98.2906 41.0876 106.564 41.0876C109.216 41.0876 111.709 40.396 113.874 39.1889V41.0876H122.594V0H113.874V13.1276ZM106.564 33.4315C102.535 33.4315 99.255 30.1675 99.255 26.1582C99.255 22.149 102.535 18.885 106.564 18.885C110.594 18.885 113.874 22.149 113.874 26.1582C113.874 30.1675 110.594 33.4315 106.564 33.4315Z" fill="#010F1B"/>
<path d="M67.4524 18.8849H72.3254V33.6867H67.4524V41.3427H85.9184V33.6867H81.0455V18.8849H85.9184V11.2289H67.4524V18.8849Z" fill="#010F1B"/>
<path d="M148.241 11.2289V13.1276C146.077 11.9205 143.584 11.2289 140.932 11.2289C132.658 11.2289 125.928 17.9254 125.928 26.1582C125.928 34.391 132.658 41.0875 140.932 41.0875C143.584 41.0875 146.077 40.3959 148.241 39.1888V41.0875H156.961V11.2289H148.241ZM140.932 33.4315C136.903 33.4315 133.622 30.1674 133.622 26.1582C133.622 22.149 136.903 18.8849 140.932 18.8849C144.961 18.8849 148.241 22.149 148.241 26.1582C148.241 30.1674 144.961 33.4315 140.932 33.4315Z" fill="#010F1B"/>
<path d="M51.2947 27.1612C51.2947 30.4788 48.7633 33.1763 45.6523 33.1763C42.5413 33.1763 40.0099 30.4788 40.0099 27.1612V11.4841H31.2898V27.1612C31.2898 35.2613 37.7324 41.8532 45.6523 41.8532C53.5722 41.8532 60.0148 35.2613 60.0148 27.1612V11.4841H51.2947V27.1612Z" fill="#010F1B"/>
<path d="M173.523 33.0487H168.123C167.274 33.0487 166.85 33.0487 166.586 33.3123C166.323 33.5759 166.323 34.0002 166.323 34.8487V40.2487C166.323 41.0972 166.323 41.5215 166.586 41.7851C166.85 42.0487 167.274 42.0487 168.123 42.0487H173.523C174.371 42.0487 174.795 42.0487 175.059 41.7851C175.323 41.5215 175.323 41.0972 175.323 40.2487V34.8487C175.323 34.0002 175.323 33.5759 175.059 33.3123C174.795 33.0487 174.371 33.0487 173.523 33.0487Z" fill="#F91E2C"/>
<path d="M174.174 0H166.974C166.477 0 166.074 0.402944 166.074 0.9V28.4969C166.074 28.9939 166.477 29.3969 166.974 29.3969H174.174C174.671 29.3969 175.074 28.9939 175.074 28.4969V0.9C175.074 0.402944 174.671 0 174.174 0Z" fill="#F91E2C"/>
<path d="M186.631 33.0487H179.431C178.933 33.0487 178.531 33.4516 178.531 33.9487V41.1487C178.531 41.6458 178.933 42.0487 179.431 42.0487H186.631C187.128 42.0487 187.531 41.6458 187.531 41.1487V33.9487C187.531 33.4516 187.128 33.0487 186.631 33.0487Z" fill="#0480E6"/>
<path d="M186.631 0H179.431C178.933 0 178.531 0.402944 178.531 0.9V28.4969C178.531 28.9939 178.933 29.3969 179.431 29.3969H186.631C187.128 29.3969 187.531 28.9939 187.531 28.4969V0.9C187.531 0.402944 187.128 0 186.631 0Z" fill="#0480E6"/>
<path d="M199.087 33.0487H191.887C191.39 33.0487 190.987 33.4516 190.987 33.9487V41.1487C190.987 41.6458 191.39 42.0487 191.887 42.0487H199.087C199.584 42.0487 199.987 41.6458 199.987 41.1487V33.9487C199.987 33.4516 199.584 33.0487 199.087 33.0487Z" fill="#FBA524"/>
<path d="M199.087 0H191.887C191.39 0 190.987 0.402944 190.987 0.9V28.4969C190.987 28.9939 191.39 29.3969 191.887 29.3969H199.087C199.584 29.3969 199.987 28.9939 199.987 28.4969V0.9C199.987 0.402944 199.584 0 199.087 0Z" fill="#FBA524"/>
</svg>
